<svg id="Capa_1" enable-background="new 0 0 512.002 512.002" height="512" viewBox="0 0 512.002 512.002" width="512" xmlns="http://www.w3.org/2000/svg"><g><g><path d="m306.781 215.361 189.933-63.311c4.27-1.423 6.626-6.122 5.047-10.337-22.711-60.614-70.858-108.762-131.472-131.472-4.215-1.579-8.913.777-10.337 5.047l-63.311 189.933c-2.089 6.267 3.873 12.229 10.14 10.14z" fill="#ffc269"/><path d="m352.409 37.917-55.768 167.304c-2.089 6.267 3.873 12.229 10.14 10.14l167.701-55.901c-19.206-57.322-64.639-102.582-122.073-121.543z" fill="#f5ebcd"/><path d="m237.021 264.841 63.309-189.925c1.424-4.273-.915-8.98-5.237-10.248-29.933-8.781-62.423-11.57-96.173-6.668-99.265 14.42-177.991 95.018-189.792 194.628-17.233 145.46 104.783 267.478 250.244 250.246 99.611-11.8 180.21-90.526 194.629-189.791 4.903-33.75 2.114-66.241-6.667-96.174-1.268-4.322-5.975-6.661-10.248-5.237l-189.925 63.308c-6.267 2.089-12.228-3.873-10.14-10.139z" fill="#ffc269"/><path d="m424.339 280.05c0-21.269-3.503-41.709-9.876-60.837l-167.302 55.767c-6.267 2.089-12.228-3.873-10.14-10.14l55.767-167.301c-19.128-6.374-39.567-9.876-60.837-9.876-106.252 0-192.387 86.135-192.387 192.387s86.135 192.387 192.387 192.387 192.388-86.135 192.388-192.387z" fill="#f5ebcd"/><circle cx="400.29" cy="135.76" fill="#e5646e" r="16.032"/><circle cx="280.048" cy="376.244" fill="#ff8086" r="24.048"/><circle cx="159.806" cy="336.163" fill="#ffc269" r="24.048"/><circle cx="352.194" cy="296.082" fill="#ffc269" r="16.032"/><circle cx="207.903" cy="416.324" fill="#e5646e" r="16.032"/><circle cx="151.79" cy="199.889" fill="#ff8086" r="32.065"/><path d="m163.815 219.929c-17.709 0-32.065-14.356-32.065-32.065 0-5.755 1.639-11.078 4.293-15.747-9.698 5.514-16.317 15.817-16.317 27.772 0 17.708 14.356 32.065 32.065 32.065 11.954 0 22.259-6.618 27.772-16.317-4.67 2.654-9.994 4.292-15.748 4.292z" fill="#e5646e"/><path d="m251.992 452.397c-106.253 0-192.387-86.135-192.387-192.387 0-48.025 17.637-91.903 46.735-125.612-40.871 35.279-66.775 87.425-66.775 145.652 0 106.252 86.134 192.387 192.387 192.387 58.227 0 110.372-25.904 145.652-66.775-33.708 29.098-77.588 46.735-125.612 46.735z" fill="#f4dbb3"/><path d="m275.404 486.841c-145.46 17.233-267.477-104.785-250.243-250.246 5.581-47.104 26.256-89.837 56.862-123.451-39.446 35.459-66.386 84.542-72.895 139.483-17.234 145.461 104.783 267.479 250.244 250.246 54.943-6.509 104.026-33.449 139.486-72.896-33.614 30.608-76.349 51.284-123.454 56.864z" fill="#ffa95f"/></g><g><path d="m448.235 202.366c-1.779-.89-3.839-1.037-5.726-.407l-198.699 66.232 66.233-198.698c.629-1.888.482-3.947-.407-5.727-.89-1.779-2.45-3.132-4.337-3.761-23.712-7.901-48.39-11.907-73.347-11.907-61.957 0-120.205 24.127-164.015 67.937s-67.937 102.058-67.937 164.015 24.127 120.205 67.937 164.014c43.81 43.81 102.058 67.938 164.015 67.938s120.205-24.127 164.015-67.938c43.81-43.81 67.937-102.058 67.937-164.014 0-24.958-4.006-49.635-11.908-73.347-.629-1.888-1.982-3.447-3.761-4.337zm-62.875 231.092c-40.977 40.977-95.458 63.544-153.408 63.544s-112.431-22.567-153.408-63.544c-40.977-40.977-63.544-95.458-63.544-153.408s22.567-112.431 63.543-153.408c40.977-40.977 95.458-63.544 153.408-63.544 20.842 0 41.478 2.988 61.448 8.889l-5.401 16.203c-18.222-5.326-37.04-8.027-56.047-8.027-110.218 0-199.887 89.669-199.887 199.887s89.669 199.887 199.887 199.887c60.983 0 117.858-27.32 156.044-74.956 2.591-3.232 2.071-7.952-1.161-10.542-3.232-2.592-7.953-2.071-10.543 1.161-35.323 44.065-87.933 69.337-144.34 69.337-101.947 0-184.887-82.94-184.887-184.887s82.94-184.887 184.887-184.887c17.393 0 34.615 2.441 51.302 7.264l-58.417 175.251c-.898 2.695-.197 5.666 1.812 7.675s4.98 2.711 7.675 1.812l175.251-58.417c4.823 16.688 7.264 33.91 7.264 51.302 0 31.356-7.99 62.329-23.105 89.57-2.01 3.622-.703 8.188 2.919 10.197 1.153.64 2.401.943 3.632.943 2.637 0 5.195-1.394 6.565-3.863 16.348-29.462 24.989-62.951 24.989-96.848 0-19.007-2.701-37.825-8.028-56.048l16.203-5.401c5.901 19.97 8.889 40.605 8.889 61.449.001 57.951-22.566 112.432-63.542 153.409z"/><path d="m511.615 147.084c-22.958-68.9-77.798-123.74-146.697-146.698-3.929-1.308-8.176.814-9.486 4.744l-70.976 212.929c-.898 2.694-.197 5.666 1.812 7.675 1.43 1.43 3.346 2.197 5.304 2.197.793 0 1.594-.126 2.371-.385l182.509-60.836h.001c.001 0 .002 0 .003-.001l30.416-10.139c3.929-1.31 6.053-5.557 4.743-9.486zm-32.923 3.067c-13.527-36.074-36.992-67.193-68.209-90.338-3.328-2.468-8.025-1.77-10.491 1.558-2.467 3.327-1.77 8.024 1.558 10.491 28.729 21.301 50.359 49.896 62.901 83.037l-161.021 53.673 53.668-161.003c5.386 2.044 10.699 4.33 15.856 6.863 1.064.522 2.191.77 3.301.77 2.77 0 5.434-1.541 6.737-4.195 1.826-3.718.292-8.212-3.426-10.038-5.759-2.829-11.695-5.388-17.718-7.652l5.401-16.203c58.772 21.905 105.734 68.867 127.639 127.64z"/><path d="m191.355 199.889c0-3.347-.42-6.674-1.248-9.89-1.034-4.011-5.124-6.425-9.134-5.392-4.011 1.033-6.425 5.122-5.393 9.133.514 1.995.774 4.063.774 6.148 0 13.545-11.02 24.564-24.564 24.564s-24.565-11.02-24.565-24.564 11.02-24.565 24.565-24.565c2.09 0 4.164.262 6.163.778 4.009 1.037 8.101-1.376 9.136-5.388 1.035-4.011-1.377-8.101-5.388-9.136-3.223-.832-6.558-1.254-9.911-1.254-21.816 0-39.565 17.749-39.565 39.565s17.749 39.564 39.565 39.564c21.816.001 39.565-17.747 39.565-39.563z"/><path d="m376.758 135.76c0 12.976 10.557 23.532 23.532 23.532s23.532-10.557 23.532-23.532-10.557-23.532-23.532-23.532-23.532 10.556-23.532 23.532zm23.533-8.533c4.705 0 8.532 3.828 8.532 8.532 0 4.705-3.828 8.532-8.532 8.532s-8.532-3.827-8.532-8.532c-.001-4.704 3.827-8.532 8.532-8.532z"/><path d="m280.048 344.695c-17.396 0-31.548 14.153-31.548 31.549s14.152 31.548 31.548 31.548 31.548-14.152 31.548-31.548c.001-17.396-14.152-31.549-31.548-31.549zm0 48.097c-9.125 0-16.548-7.423-16.548-16.548s7.423-16.549 16.548-16.549 16.548 7.424 16.548 16.549c.001 9.124-7.423 16.548-16.548 16.548z"/><path d="m159.807 304.614c-17.396 0-31.548 14.153-31.548 31.548 0 17.396 14.152 31.549 31.548 31.549s31.548-14.153 31.548-31.549c0-17.395-14.152-31.548-31.548-31.548zm0 48.098c-9.125 0-16.548-7.424-16.548-16.549s7.423-16.548 16.548-16.548 16.548 7.423 16.548 16.548-7.423 16.549-16.548 16.549z"/><path d="m375.726 296.082c0-12.976-10.557-23.532-23.532-23.532s-23.532 10.557-23.532 23.532 10.557 23.532 23.532 23.532 23.532-10.556 23.532-23.532zm-23.533 8.532c-4.705 0-8.532-3.828-8.532-8.532s3.828-8.532 8.532-8.532 8.532 3.828 8.532 8.532-3.827 8.532-8.532 8.532z"/><path d="m207.903 392.792c-12.976 0-23.532 10.557-23.532 23.532s10.557 23.532 23.532 23.532 23.532-10.557 23.532-23.532-10.556-23.532-23.532-23.532zm0 32.064c-4.705 0-8.532-3.827-8.532-8.532 0-4.704 3.828-8.532 8.532-8.532s8.532 3.828 8.532 8.532c.001 4.705-3.827 8.532-8.532 8.532z"/><path d="m355.547 137.068c-3.705-1.852-8.21-.35-10.062 3.354l-8.016 16.032c-1.853 3.705-.351 8.21 3.354 10.063 1.077.538 2.221.793 3.348.793 2.751 0 5.4-1.52 6.714-4.148l8.016-16.032c1.853-3.705.351-8.21-3.354-10.062z"/><path d="m381.545 82.36-8.016-8.017c-2.929-2.929-7.678-2.929-10.606 0-2.929 2.929-2.929 7.678 0 10.606l8.016 8.017c1.464 1.464 3.384 2.196 5.303 2.196s3.839-.732 5.303-2.196c2.929-2.929 2.929-7.677 0-10.606z"/><path d="m196.533 142.468 16.032 8.016c1.077.538 2.221.793 3.348.793 2.751 0 5.4-1.52 6.714-4.148 1.853-3.705.351-8.209-3.354-10.062l-16.032-8.016c-3.705-1.853-8.21-.351-10.062 3.354-1.852 3.706-.351 8.21 3.354 10.063z"/><path d="m247.984 143.26c4.142 0 7.5-3.357 7.5-7.5v-8.016c0-4.143-3.358-7.5-7.5-7.5s-7.5 3.357-7.5 7.5v8.016c0 4.142 3.358 7.5 7.5 7.5z"/><path d="m76.291 254.694 16.032 8.016c1.077.539 2.221.794 3.348.794 2.751 0 5.4-1.52 6.714-4.148 1.853-3.705.351-8.209-3.354-10.062l-16.032-8.017c-3.705-1.853-8.21-.351-10.062 3.354-1.853 3.706-.351 8.211 3.354 10.063z"/><path d="m128.258 272.034v8.016c0 4.142 3.358 7.5 7.5 7.5s7.5-3.358 7.5-7.5v-8.016c0-4.142-3.358-7.5-7.5-7.5s-7.5 3.358-7.5 7.5z"/><path d="m216.436 199.889v8.016c0 4.142 3.358 7.5 7.5 7.5s7.5-3.358 7.5-7.5v-8.016c0-4.142-3.358-7.5-7.5-7.5s-7.5 3.358-7.5 7.5z"/><path d="m181.142 258.715c-2.929-2.929-7.678-2.929-10.606 0-2.929 2.929-2.929 7.678 0 10.606l8.016 8.016c1.464 1.464 3.384 2.197 5.303 2.197s3.839-.732 5.303-2.197c2.929-2.929 2.929-7.677 0-10.606z"/><path d="m92.964 298.795c-2.929-2.929-7.678-2.929-10.606 0l-8.016 8.016c-2.929 2.929-2.929 7.678 0 10.606 1.464 1.465 3.384 2.197 5.303 2.197s3.839-.732 5.303-2.197l8.016-8.016c2.93-2.929 2.93-7.677 0-10.606z"/><path d="m103.693 344.695h-8.016c-4.142 0-7.5 3.358-7.5 7.5 0 4.143 3.358 7.5 7.5 7.5h8.016c4.142 0 7.5-3.357 7.5-7.5 0-4.142-3.358-7.5-7.5-7.5z"/><path d="m234.665 314.828-8.016 8.016c-2.929 2.929-2.929 7.678 0 10.606 1.464 1.465 3.384 2.197 5.303 2.197s3.839-.732 5.303-2.197l8.016-8.016c2.929-2.929 2.929-7.678 0-10.606-2.929-2.93-7.678-2.93-10.606 0z"/><path d="m207.903 360.727c-4.142 0-7.5 3.358-7.5 7.5 0 4.143 3.358 7.5 7.5 7.5h8.016c4.142 0 7.5-3.357 7.5-7.5 0-4.142-3.358-7.5-7.5-7.5z"/><path d="m151.791 392.792c-4.142 0-7.5 3.358-7.5 7.5v8.017c0 4.142 3.358 7.5 7.5 7.5s7.5-3.358 7.5-7.5v-8.017c0-4.142-3.358-7.5-7.5-7.5z"/><path d="m272.032 424.856h-8.016c-4.142 0-7.5 3.358-7.5 7.5 0 4.143 3.358 7.5 7.5 7.5h8.016c4.142 0 7.5-3.357 7.5-7.5 0-4.141-3.358-7.5-7.5-7.5z"/><path d="m296.081 327.631c4.142 0 7.5-3.357 7.5-7.5v-16.032c0-4.142-3.358-7.5-7.5-7.5s-7.5 3.358-7.5 7.5v16.032c0 4.142 3.357 7.5 7.5 7.5z"/><path d="m349.48 354.908c-2.929-2.929-7.678-2.929-10.606 0-2.929 2.929-2.929 7.678 0 10.606l8.016 8.017c1.464 1.464 3.384 2.196 5.303 2.196s3.839-.732 5.303-2.196c2.929-2.929 2.929-7.678 0-10.606z"/><path d="m384.258 328.663h-8.017c-4.142 0-7.5 3.358-7.5 7.5 0 4.143 3.358 7.5 7.5 7.5h8.017c4.142 0 7.5-3.357 7.5-7.5 0-4.142-3.358-7.5-7.5-7.5z"/><path d="m399.774 272.034v-8.016c0-4.142-3.358-7.5-7.5-7.5s-7.5 3.358-7.5 7.5v8.016c0 4.142 3.358 7.5 7.5 7.5s7.5-3.358 7.5-7.5z"/></g></g></svg>